<?xml version="1.0" encoding="UTF-8" standalone="no"?>
<!-- github icon by Free Icons (https://free-icons.github.io/free-icons/) -->

<svg
   height="1em"
   fill="currentColor"
   viewBox="0 0 496 484"
   version="1.1"
   id="svg4"
   sodipodi:docname="github_invert.svg"
   inkscape:version="1.1.2 (b8e25be833, 2022-02-05)"
   xmlns:inkscape="http://www.inkscape.org/namespaces/inkscape"
   xmlns:sodipodi="http://sodipodi.sourceforge.net/DTD/sodipodi-0.dtd"
   xmlns="http://www.w3.org/2000/svg"
   xmlns:svg="http://www.w3.org/2000/svg">
  <defs
     id="defs8" />
  <sodipodi:namedview
     id="namedview6"
     pagecolor="#505050"
     bordercolor="#eeeeee"
     borderopacity="1"
     inkscape:pageshadow="0"
     inkscape:pageopacity="0"
     inkscape:pagecheckerboard="0"
     showgrid="false"
     inkscape:zoom="1.1662912"
     inkscape:cx="331.82106"
     inkscape:cy="214.7834"
     inkscape:window-width="1841"
     inkscape:window-height="1051"
     inkscape:window-x="1911"
     inkscape:window-y="-9"
     inkscape:window-maximized="1"
     inkscape:current-layer="svg4" />
  <path
     id="path847"
     style="fill:#ffffff;fill-opacity:1;stroke:none;stroke-width:5;stroke-linecap:round;stroke-linejoin:round;stroke-miterlimit:4;stroke-dasharray:none;paint-order:stroke fill markers"
     d="m 384.22266,93.689453 c -6.5,-0.25 -13.75,1.375 -21.75,4.875 -10.66667,3.999997 -20,8.666697 -28,13.999997 -8.66667,5.33333 -13,8.33333 -13,9 -20.66667,-6 -41.66667,-9 -63,-9 -22,0 -43,3 -63,9 -1.33333,-2 -10.33333,-7.33333 -27,-16 -16,-9.333327 -30,-12.999997 -42,-10.999997 -6,17.333327 -8.33333,31.999997 -7,43.999997 1.33333,12 2.66667,20 4,24 -8,8 -13.66667,16.33333 -17,25 -4,8.66667 -6,19.66667 -6,33 1.33333,46.66667 13,76.33333 35,89 22,13.33333 47.66667,20.66667 77,22 -8,6.66667 -13.33333,18 -16,34 -8,4 -19.33333,6 -34,6 -14,0 -27,-9 -39,-27 -7.33333,-12 -15.33334,-19.33333 -24,-22 -8.66667,-3.33333 -13.33334,-4.66667 -14,-4 -11.33334,0.66667 -14.66667,3 -10,7 4,4.66667 6.66666,7.33333 8,8 8,5.33333 14.66666,12.33333 20,21 5.33333,9.33333 8,14.66667 8,16 5.33333,14.66667 14.66667,24 28,28 13.33333,3.33333 26,4.66667 38,4 11.33333,-1.33333 17.66667,-2 19,-2 v 46 15 c 0.51389,6.68058 -2.77658,10.55854 -9.78907,11.69336 a 250.85606,249.2468 0 0 0 70.14844,10.10547 250.85606,249.2468 0 0 0 71.91992,-10.42773 c -5.95282,-1.43754 -8.75419,-5.19734 -8.27929,-11.3711 v -18 -66 c -0.66667,-23.33333 -6.33333,-38.66667 -17,-46 19.33333,-1.33333 37.66667,-4.66667 55,-10 17.33333,-5.33333 31.66667,-15.33333 43,-30 10.66667,-15.33333 16.33333,-39 17,-71 0,-13.33333 -2.33333,-24.33333 -7,-33 -4.66667,-8.66667 -11,-17 -19,-25 2,-4 3.66667,-12 5,-24 1.33333,-12 -1,-26.66667 -7,-43.999997 -2,-0.5 -4.08333,-0.79167 -6.25,-0.875 z M 99.03516,326.25195 c 0.45833,0.0417 0.9375,0.14583 1.4375,0.3125 2,1.33333 2.66666,2.66667 2,4 -0.66667,1.33333 -2,1.66667 -4,1 -2,-1.33333 -3,-2.66667 -3,-4 1,-1 2.1875,-1.4375 3.5625,-1.3125 z m 10.1875,8.5625 c 0.83333,0.16667 1.58333,0.75 2.25,1.75 2,2 2.33333,3.66667 1,5 -1.33333,1.33333 -3,1 -5,-1 -2,-2 -2.33334,-3.66667 -1,-5 1,-0.66667 1.91666,-0.91667 2.75,-0.75 z m 8.75,13.125 c 1.5,-0.25 3,0.625 4.5,2.625 1.33333,2.66667 1.33333,4.66667 0,6 -2,0.66667 -4,0 -6,-2 -1.33333,-2.66667 -1.33333,-4.66667 0,-6 0.5,-0.33333 1,-0.54167 1.5,-0.625 z m 13,13.875 c 1,0.16667 2.16667,0.75 3.5,1.75 2,2.66667 2.66667,5 2,7 -2,1.33333 -4.33333,1 -7,-1 -2,-2.66667 -2.33333,-5 -1,-7 0.66667,-0.66667 1.5,-0.91667 2.5,-0.75 z m 17.25,11.5 c 0.66667,0 1.41667,0.0833 2.25,0.25 3.33333,0.66667 4.66667,2.33333 4,5 -0.66667,2 -2.66667,2.66667 -6,2 -3.33333,-1.33333 -4.66667,-3 -4,-5 0.5,-1.5 1.75,-2.25 3.75,-2.25 z m 40.25,0.25 c 3.33333,0 5.33333,1 6,3 0,2 -1.66667,3.66667 -5,5 -3.33333,0 -5.33333,-1 -6,-3 0,-2.66667 1.66667,-4.33333 5,-5 z m -19,3 c 3.33333,0 5.33333,1 6,3 -0.66667,2.66667 -2.33333,4 -5,4 -4,0 -6,-1.33333 -6,-4 0.66667,-2 2.33333,-3 5,-3 z"
     inkscape:export-filename="C:\Users\addar\Pictures\Icons\github_invert.png"
     inkscape:export-xdpi="343.01999"
     inkscape:export-ydpi="343.01999" />
</svg>
