<?xml version="1.0" encoding="UTF-8" standalone="no"?>
<svg
   xmlns:dc="http://purl.org/dc/elements/1.1/"
   xmlns:cc="http://creativecommons.org/ns#"
   xmlns:rdf="http://www.w3.org/1999/02/22-rdf-syntax-ns#"
   xmlns:svg="http://www.w3.org/2000/svg"
   xmlns="http://www.w3.org/2000/svg"
   height="252"
   width="362.0437"
   id="svg34"
   version="1.1"
   viewBox="0 0 362.04369 252">
  <metadata
     id="metadata40">
    <rdf:RDF>
      <cc:Work
         rdf:about="">
        <dc:format>image/svg+xml</dc:format>
        <dc:type
           rdf:resource="http://purl.org/dc/dcmitype/StillImage" />
      </cc:Work>
    </rdf:RDF>
  </metadata>
  <defs
     id="defs38" />
  <title
     id="title2">Asset 8</title>
  <g
     transform="translate(0.00391971)"
     data-name="Layer 2"
     id="Layer_2">
    <g
       id="LogoImage">
      <path
         id="path4"
         d="M 134.1,139.81 168.16,77.13 142.9,30.84 h 27.25 L 188,63.78 v 27 l -26.83,49 z m 58.47,0 v -109 h 23 v 109 z" />
      <path
         id="path6"
         d="M 108.54,252 90.65,219.18 H 78.88 V 252 H 56 V 175.59 H 78.88 V 192 h 27.53 V 170.2 H 56 V 143 h 61.9 q 3.41,0 7.38,4.73 3.97,4.73 4,8.79 v 49.16 a 14.14,14.14 0 0 1 -3.55,9.29 q -3.55,4.23 -7.81,4.23 l 17.72,32.8 z" />
      <path
         id="path8"
         d="m 145.35,252 a 10.27,10.27 0 0 1 -8.09,-4 14.49,14.49 0 0 1 -3.41,-9.63 V 143 h 26.94 v 81.77 h 31.67 V 143 h 22.85 v 109 z" />
      <path
         id="path10"
         d="m 279.05,252 -36.6,-67.24 V 252 H 219.6 v -87.73 a 22.64,22.64 0 0 1 5.25,-15 q 5.25,-6.27 12.63,-6.27 9.65,0 15,10.14 l 31.08,57.1 V 143 h 23 v 109" />
      <ellipse
         id="ellipse12"
         ry="18.76"
         rx="18.66"
         cy="18.76"
         cx="316.47" />
      <rect
         id="rect14"
         height="2.21"
         width="12.56"
         y="107.99"
         x="219.14999" />
      <rect
         id="rect16"
         height="2.21"
         width="25.110001"
         y="85.690002"
         x="219.14999" />
      <rect
         id="rect18"
         height="2.4300001"
         width="38.400002"
         y="62.16"
         x="218.33" />
      <ellipse
         id="ellipse20"
         ry="18.76"
         rx="18.66"
         cy="19.690001"
         cx="48.32" />
      <rect
         id="rect22"
         transform="rotate(180,128.62,87.72)"
         height="2.21"
         width="31.66"
         y="86.610001"
         x="112.79" />
      <rect
         id="rect24"
         transform="rotate(180,124.415,64.295)"
         height="2.4300001"
         width="46.389999"
         y="63.080002"
         x="101.22" />
      <rect
         id="rect26"
         height="2.21"
         width="16.16"
         y="109.93"
         x="127.35" />
      <path
         id="path28"
         d="M 134.27,30.5 H 73.59 a 4,4 0 0 0 -0.5,0 8,8 0 0 0 -1.08,0 c -5.25,0.14 -8.12,2.75 -10.32,5.27 A 4.52,4.52 0 0 0 60.37,37 L 37,71.71 11,36.47 v 0 C 9.18,34.11 5.51,33.84 2.75,35.87 -0.01,37.9 -0.82,41.49 0.89,43.93 v 0 L 32.3,86.57 a 5.64,5.64 0 0 0 6.77,1.53 4.78,4.78 0 0 0 3.32,-1.92 v 0 L 57,64.56 v 3.65 a 7.89,7.89 0 0 0 2.87,6.28 l 3.23,2.44 c 2.13,1.62 5,2.6 7.27,1.7 l 6.78,-5.25 10.06,22.13 H 58.91 C 57.32,95.51 56,97.08 56,99 v 40.8 h 22.26 v -16.64 h 21.21 l 7.53,16.65 h 22.86 L 86.38,43.08 h 47.89 a 6.29,6.29 0 0 0 0,-12.58 z" />
      <path
         id="path30"
         d="m 359.28,35.87 c -2.76,-2 -6.43,-1.76 -8.25,0.6 v 0 l -26,35.24 -20.63,-30.63 a 17.36,17.36 0 0 0 -16,-10.57 13.7,13.7 0 0 0 -2.08,0.11 6.51,6.51 0 0 0 -1,-0.11 h -60.7 a 6.29,6.29 0 1 0 0,12.58 H 271 l -52.64,96.73 H 246 l 11.89,-24.91 h 26 l -0.13,24.91 h 22.82 V 98.33 a 2.81,2.81 0 0 0 -2.81,-2.82 H 270 l 12.22,-22.13 11,6.09 c 2.72,0.9 4.38,-0.63 7,-2.25 l 3.49,-2.46 c 2.17,-1.35 3,-4 3,-6.55 v -1.38 l 13.06,19.36 v 0 a 4.78,4.78 0 0 0 3.23,1.91 5.64,5.64 0 0 0 6.77,-1.53 l 31.41,-42.64 v 0 c 1.68,-2.44 0.82,-6.03 -1.9,-8.06 z" />
    </g>
  </g>
</svg>
