<?xml version="1.0" encoding="UTF-8" standalone="no"?>
<!-- youtube icon by Free Icons (https://free-icons.github.io/free-icons/) -->

<svg
   height="1em"
   fill="currentColor"
   viewBox="0 0 546 384"
   version="1.1"
   id="svg4"
   sodipodi:docname="youtube.svg"
   inkscape:version="1.1.2 (b8e25be833, 2022-02-05)"
   xmlns:inkscape="http://www.inkscape.org/namespaces/inkscape"
   xmlns:sodipodi="http://sodipodi.sourceforge.net/DTD/sodipodi-0.dtd"
   xmlns="http://www.w3.org/2000/svg"
   xmlns:svg="http://www.w3.org/2000/svg">
  <defs
     id="defs8" />
  <sodipodi:namedview
     id="namedview6"
     pagecolor="#505050"
     bordercolor="#eeeeee"
     borderopacity="1"
     inkscape:pageshadow="0"
     inkscape:pageopacity="0"
     inkscape:pagecheckerboard="0"
     showgrid="false"
     inkscape:zoom="2.234375"
     inkscape:cx="273.00699"
     inkscape:cy="192.22378"
     inkscape:window-width="1841"
     inkscape:window-height="1051"
     inkscape:window-x="1911"
     inkscape:window-y="-9"
     inkscape:window-maximized="1"
     inkscape:current-layer="svg4" />
  <path
     d="M 535 60 Q 523 23 486 11 Q 462 6 412 3 Q 362 1 319 0 Q 276 0 273 0 Q 270 0 227 0 Q 184 1 134 3 Q 84 6 60 11 Q 23 23 11 60 Q 6 83 3 113 Q 1 144 0 168 Q 0 191 0 192 Q 0 194 0 217 Q 1 241 3 271 Q 6 302 11 325 Q 23 362 60 373 Q 84 378 134 381 Q 184 383 227 384 Q 270 384 273 384 Q 273 384 273 384 Q 276 384 319 384 Q 362 383 412 381 Q 462 378 486 373 Q 523 362 535 325 Q 540 302 543 271 Q 545 241 546 217 Q 546 194 546 192 Q 546 191 546 168 Q 545 144 543 113 Q 540 83 535 60 L 535 60 Z M 217 274 L 217 111 L 360 192 L 217 274 L 217 274 Z"
     id="path2"
     style="fill:#fffffe;fill-opacity:1" />
</svg>
